<?xml version="1.0" encoding="utf-8"?>
<!-- Generator: Adobe Illustrator 26.0.0, SVG Export Plug-In . SVG Version: 6.00 Build 0)  -->
<svg version="1.1" id="Capa_1" xmlns="http://www.w3.org/2000/svg" xmlns:xlink="http://www.w3.org/1999/xlink" x="0px" y="0px"
	 viewBox="0 0 25 21" style="enable-background:new 0 0 25 21;" xml:space="preserve">
<path d="M1,0.7c-0.6,0-1,0.4-1,1s0.4,1,1,1V0.7z M24,2.7c0.6,0,1-0.4,1-1s-0.4-1-1-1V2.7z M1,9.5c-0.6,0-1,0.4-1,1s0.4,1,1,1V9.5z
	 M12.5,11.5c0.6,0,1-0.4,1-1s-0.4-1-1-1V11.5z M1,18.3c-0.6,0-1,0.4-1,1s0.4,1,1,1V18.3z M24,20.3c0.6,0,1-0.4,1-1s-0.4-1-1-1V20.3z
	 M1,2.7h23v-2H1V2.7z M1,11.5h11.5v-2H1V11.5z M1,20.3h23v-2H1V20.3z"/>
</svg>
