<?xml version="1.0" encoding="utf-8"?>
<!-- Generator: Adobe Illustrator 26.0.0, SVG Export Plug-In . SVG Version: 6.00 Build 0)  -->
<svg version="1.1" id="Capa_1" xmlns="http://www.w3.org/2000/svg" xmlns:xlink="http://www.w3.org/1999/xlink" x="0px" y="0px"
	 viewBox="0 0 16 16" style="enable-background:new 0 0 16 16;" xml:space="preserve">
<style type="text/css">
	.st0{fill:#4B0082;}
</style>
<g>
	<path d="M7.4,7.6C7.7,7.6,8,7.8,8,8.1c0,0.6,0.4,0.5,0.7,0.5c0.2,0,0.2-0.1,0.2-0.2c0-0.8-0.5-1.4-1.3-1.4c-0.9,0-1.5,0.5-1.5,1.3
		c0,0.2,0,0.4,0,0.6c0,0.9,0.5,1.4,1.4,1.5c0.3,0,0.5,0.2,0.5,0.5C8,11,8,11.2,8,11.5c0,0.3-0.2,0.5-0.5,0.5C7.2,12,7,11.8,7,11.5
		c0-0.6-0.4-0.5-0.7-0.5c-0.2,0-0.2,0.1-0.3,0.3c0,0.8,0.5,1.4,1.3,1.4c0.9,0,1.5-0.5,1.5-1.3c0-0.2,0-0.4,0-0.6
		c0-0.7-0.4-1.2-1.1-1.4C7,9.3,7,9.3,6.9,8.5c0-0.1,0-0.2,0-0.3C7,7.8,7.1,7.6,7.4,7.6z"/>
	<path class="st0" d="M11,7.6c0.3,0,0.6,0.1,0.5,0.4c0,0.6,0.4,0.5,0.7,0.5c0.2,0,0.2-0.1,0.2-0.2c0-0.8-0.5-1.4-1.3-1.4
		c-0.9,0-1.5,0.5-1.5,1.3c0,0.2,0,0.4,0,0.6c0,0.9,0.5,1.4,1.4,1.5c0.3,0,0.5,0.2,0.5,0.5c0.1,0.3,0.1,0.5,0,0.8
		c0,0.3-0.2,0.5-0.5,0.5c-0.3,0-0.5-0.2-0.5-0.4c0-0.6-0.4-0.5-0.7-0.5c-0.2,0-0.2,0.1-0.3,0.3c0,0.8,0.5,1.4,1.3,1.4
		c0.9,0,1.5-0.5,1.5-1.3c0-0.2,0-0.4,0-0.6c0-0.7-0.4-1.2-1.1-1.4c-0.7-0.1-0.8-0.2-0.8-1c0-0.1,0-0.2,0-0.3
		C10.6,7.8,10.8,7.6,11,7.6z"/>
	<g>
		<path class="st0" d="M12.3,13.2c-1.9,0-3.7,0-5.6,0c-1,0-1.4-0.3-1.4-1.3c0-1.3,0-2.7,0-4c0-0.9,0.4-1.3,1.3-1.3
			c1.8,0,3.5,0,5.3,0c1,0,1,0,1-0.9c0-0.9-0.4-1.3-1.3-1.3c-2.4,0-4.8,0-7.2,0c-0.8,0-1.2,0.4-1.2,1.2c0,1.4,0,2.9,0,4.3
			c0,0,0,0,0,0c0,1.4,0,2.9,0,4.3c0,0.9,0.4,1.2,1.3,1.2c0.9,0,1.8,0,2.7,0c1.5,0,3,0,4.4,0c0.9,0,1.3-0.3,1.3-1.3
			c0-0.1,0-0.2,0-0.4C12.9,13.3,12.8,13.2,12.3,13.2z"/>
		<g>
			<path d="M4.5,3.8c0.3,0,0.4-0.1,0.4-0.4C5.2,1.9,6.6,1,8,1.3c1.1,0.3,1.8,1,1.9,2.2c0.1,0.3,0.2,0.3,0.4,0.3
				c0.3,0,0.2-0.2,0.2-0.3c-0.1-1.5-1.5-2.8-3.2-2.9c-1.7,0-3.1,1.3-3.2,2.8C4.2,3.6,4.2,3.8,4.5,3.8z"/>
			<path d="M11.1,3.5c0,0.4,0.3,0.3,0.5,0.3c0.3,0,0.2-0.2,0.2-0.3c-0.1-1.1-1-2.3-2.1-2.7C10.6,1.6,11.1,2.4,11.1,3.5z"/>
			<path d="M5.6,3.8c0.2,0,0.5,0.1,0.5-0.2c0.1-0.7,0.4-1.2,0.8-1.7C6.1,2.1,5.6,2.7,5.4,3.5C5.4,3.6,5.4,3.8,5.6,3.8z"/>
		</g>
	</g>
</g>
</svg>
