<svg id="Capa_1" data-name="Capa 1" xmlns="http://www.w3.org/2000/svg" viewBox="0 0 16 16"><defs><style>.cls-1{fill:indigo;}</style></defs><path d="M7.41,7.63c.3,0,.56.12.55.44,0,.55.36.45.69.46.18,0,.23-.06.23-.24A1.31,1.31,0,0,0,7.61,6.86a1.34,1.34,0,0,0-1.55,1.3c0,.19,0,.38,0,.58a1.36,1.36,0,0,0,1.36,1.5.54.54,0,0,1,.54.47,2.32,2.32,0,0,1,0,.79.46.46,0,0,1-.48.46A.44.44,0,0,1,7,11.54c0-.57-.35-.46-.69-.47s-.25.07-.25.26a1.33,1.33,0,0,0,1.31,1.41,1.32,1.32,0,0,0,1.51-1.32c0-.2,0-.39,0-.58A1.33,1.33,0,0,0,7.74,9.47c-.72-.15-.78-.22-.8-1,0-.06,0-.2,0-.34A.45.45,0,0,1,7.41,7.63Z"/><path class="cls-1" d="M11.05,7.63c.29,0,.55.12.55.44,0,.55.35.45.68.46s.23-.06.24-.24a1.31,1.31,0,0,0-1.28-1.43,1.34,1.34,0,0,0-1.55,1.3v.58a1.36,1.36,0,0,0,1.36,1.5.54.54,0,0,1,.54.47,2.32,2.32,0,0,1,0,.79.46.46,0,0,1-.48.46.44.44,0,0,1-.52-.42c0-.57-.35-.46-.69-.47s-.24.07-.25.26A1.33,1.33,0,0,0,11,12.74a1.31,1.31,0,0,0,1.51-1.32,5.61,5.61,0,0,0,0-.58,1.33,1.33,0,0,0-1.13-1.37c-.72-.15-.78-.22-.8-1,0-.06,0-.2,0-.34A.46.46,0,0,1,11.05,7.63Z"/><path class="cls-1" d="M12.28,13.16c-1.85,0-3.7,0-5.55,0-1.05,0-1.37-.32-1.37-1.35,0-1.34,0-2.69,0-4,0-.92.37-1.28,1.28-1.28h5.25c1,0,1,0,1-.94S12.47,4.3,11.59,4.3H4.37A1.09,1.09,0,0,0,3.14,5.55V9.84h0c0,1.43,0,2.86,0,4.29,0,.88.38,1.25,1.27,1.25h7.12c.93,0,1.29-.35,1.3-1.26,0-.12,0-.24,0-.36C12.9,13.33,12.77,13.16,12.28,13.16Z"/><path d="M4.5,3.83c.29,0,.4-.08.45-.38A2.49,2.49,0,0,1,8,1.35a2.43,2.43,0,0,1,2,2.17c0,.34.23.29.44.29s.24-.16.22-.33A3.18,3.18,0,0,0,7.48.62,3.21,3.21,0,0,0,4.25,3.46C4.24,3.65,4.19,3.83,4.5,3.83Z"/><path d="M11.14,3.54c0,.35.25.27.46.29s.23-.17.22-.34A3.14,3.14,0,0,0,9.67.83,3.75,3.75,0,0,1,11.14,3.54Z"/><path d="M5.6,3.81c.18,0,.45.15.48-.23a2.88,2.88,0,0,1,.8-1.7A2,2,0,0,0,5.43,3.49C5.41,3.64,5.35,3.83,5.6,3.81Z"/></svg>