<svg id="Capa_1" data-name="Capa 1" xmlns="http://www.w3.org/2000/svg" viewBox="0 0 83.74 31.33"><defs><style>.cls-1{fill:indigo;}.cls-2{fill:#1c003a;}.cls-3{fill:#fff;}.cls-4{fill:none;}</style></defs><path class="cls-1" d="M28.15,21.69a14.19,14.19,0,0,0-3.38-4.38,1.08,1.08,0,0,1-.21-.3q-2-5-4-10c-.13-.33-.28-.39-.6-.32-.68.14-1.36.25-2.08.37,0-.16-.05-.27-.07-.39-.12-.8-.23-1.61-.37-2.4a8.36,8.36,0,0,0-.91-2.88A2.22,2.22,0,0,0,14.41.34a1.76,1.76,0,0,0-1.64,1.31A22.37,22.37,0,0,0,12.22,4a7.17,7.17,0,0,0-.09.81c-.71-.57-1.36-1.17-2.08-1.67a6.55,6.55,0,0,0-1.67-.84,1.72,1.72,0,0,0-2.12.81,2.42,2.42,0,0,0,0,2.62c.44.85,1,1.64,1.48,2.45.12.2.27.39.48.7-.62-.13-.71.28-.88.61a4.89,4.89,0,0,0-.26.51.36.36,0,0,1-.46.25c-.36-.06-.72-.07-1.11-.11.5,7,1,13.82,1.49,20.67.79-.53,1.54-1.09,2.34-1.55,1.24-.69.84-.69,2,0,.81.46,1.55,1,2.28,1.51-1-3.54-2.09-7.13-3.1-10.74s-2-7.25-3-10.88l.13,0Q11,19.95,13.84,31l.47-.21L24.72,26c.52-.23.52-.23.93.17a.55.55,0,0,0,.92,0L29,23.72c.35-.35.33-.58,0-.95A4.74,4.74,0,0,1,28.15,21.69ZM10.3,28.5q-2-9-3.37-18Q9,19.42,10.3,28.5Zm-1.56-20A15.59,15.59,0,0,1,6.65,5.17a1.79,1.79,0,0,1,.18-1.85,1.1,1.1,0,0,1,1.32-.49,5.1,5.1,0,0,1,1.46.72c.82.61,1.57,1.31,2.34,2a.51.51,0,0,1,.13.31c0,.33,0,.66,0,1H12c0,.35,0,.7,0,1a.27.27,0,0,1-.27.31c-.89.14-1.77.3-2.66.45A.45.45,0,0,1,8.74,8.53Zm2.58,3a.77.77,0,0,1-.64-.91.74.74,0,0,1,1-.5c0,.19,0,.34-.29.35a.32.32,0,1,0,.11.62,5.19,5.19,0,0,0,.59-.24A.69.69,0,0,1,11.32,11.52ZM12.65,8V6.22l1.63,1.49ZM14,19.71V18l2.46.78v.11Zm.9-3.37,1.18-1.17,1.15,2.25-.06.09Zm1.19,6.2L14.9,21.39l2.26-1.16.08.07Zm-.82-15a.37.37,0,0,1-.3-.1c-.72-.64-1.44-1.28-2.15-1.94a.38.38,0,0,1-.1-.29c.13-1,.26-1.89.41-2.83a1.66,1.66,0,0,1,.17-.47c.23-.48.51-.93,1.11-1a1.62,1.62,0,0,1,1.6.8,6.91,6.91,0,0,1,.77,2.35c.18,1,.33,2,.5,3.09C16.57,7.32,15.92,7.44,15.27,7.54Zm5.85,7.63,1.17,1.18L20.05,17.5,20,17.43ZM17.81,9.25l.39.47c.16.18.35.23.52,0s.1-.34-.06-.49a3.39,3.39,0,0,1-.34-.39.65.65,0,0,1,.81.32.73.73,0,0,1-.12.87.74.74,0,0,1-.87.13C17.82,10,17.71,9.74,17.81,9.25Zm1.63,5c-.26.84-.52,1.65-.78,2.46h-.11l-.79-2.46Zm5.62,10.81a.43.43,0,0,1-.33.09c-1-.22-2-.45-3-.71-.53-.14-1.06-.32-1.57-.51s-.57-.34-.48-.67.34-.45.75-.39.69.11,1,.15a1,1,0,0,0,.32-.08.85.85,0,0,0-.13-.31c-1-1-2.06-2.07-3.09-3.1-.17-.17-.34-.33-.5-.51a.55.55,0,0,1,0-.81.54.54,0,0,1,.81,0c.91.89,1.8,1.8,2.7,2.69.06.07.12.16.2.19a.93.93,0,0,0,.29,0c0-.1,0-.23,0-.29-.27-.3-.57-.58-.85-.86a5.93,5.93,0,0,1-.43-.44.53.53,0,0,1,0-.76.53.53,0,0,1,.78,0c.36.34.7.7,1.06,1,.12.11.24.36.43.18s-.05-.31-.16-.43-.36-.35-.52-.53a.54.54,0,0,1,0-.84.55.55,0,0,1,.81.05c.34.33.66.68,1,1,.09.08.25.06.38.09,0-.12,0-.26-.11-.34s-.4-.4-.59-.61a.54.54,0,0,1,0-.81.55.55,0,0,1,.81,0A12.52,12.52,0,0,1,28,22.16C27,23.12,26.05,24.1,25.06,25.07Zm3.8-1.63c-.84.87-1.7,1.73-2.57,2.57a.33.33,0,0,1-.36,0,6.72,6.72,0,0,1-.67-.63l3-3a7.47,7.47,0,0,1,.61.71A.38.38,0,0,1,28.86,23.44Z"/><path class="cls-1" d="M7.26,31h6.11l-3-2.05Z"/><rect class="cls-2" x="30.2" y="19.54" width="29.17" height="1.53"/><rect class="cls-2" x="63.52" y="19.54" width="7.61" height="1.53"/><path class="cls-2" d="M35.8,23.07l-2,4.14v2H32.3v-2l-2-4.14h1.64L33,25.66l1.14-2.59Z"/><path class="cls-2" d="M36.37,25.46a2,2,0,0,1,.75-.88,1.85,1.85,0,0,1,1.05-.31,1.76,1.76,0,0,1,.88.21,1.56,1.56,0,0,1,.58.56v-.7h1.44v4.91H39.63v-.69a1.57,1.57,0,0,1-.59.55,1.75,1.75,0,0,1-.87.21A1.82,1.82,0,0,1,37.12,29a2.06,2.06,0,0,1-.75-.89,3.1,3.1,0,0,1-.27-1.33A3.07,3.07,0,0,1,36.37,25.46Zm3,.45a1,1,0,0,0-.73-.33,1,1,0,0,0-.73.32,1.26,1.26,0,0,0-.3.89,1.28,1.28,0,0,0,.3.89,1,1,0,0,0,.73.33,1,1,0,0,0,.73-.32,1.28,1.28,0,0,0,.3-.89A1.26,1.26,0,0,0,39.33,25.91Z"/><path class="cls-2" d="M44.2,24.52a1.6,1.6,0,0,1,.84-.23v1.59h-.39a1.22,1.22,0,0,0-.82.24,1.13,1.13,0,0,0-.27.85v2.28H42.12V24.34h1.44v.82A2,2,0,0,1,44.2,24.52Z"/><path class="cls-2" d="M45.72,25.46a2.18,2.18,0,0,1,.75-.88,1.94,1.94,0,0,1,1.91-.11A1.67,1.67,0,0,1,49,25V22.74h1.44v6.51H49v-.7a1.56,1.56,0,0,1-.58.56,1.75,1.75,0,0,1-.87.21A1.88,1.88,0,0,1,46.47,29a2.21,2.21,0,0,1-.75-.89,3.1,3.1,0,0,1-.27-1.33A3.07,3.07,0,0,1,45.72,25.46Zm3,.45a1,1,0,0,0-.73-.33,1,1,0,0,0-.73.32,1.26,1.26,0,0,0-.3.89,1.28,1.28,0,0,0,.3.89A1,1,0,0,0,48,28a1,1,0,0,0,.73-.32,1.28,1.28,0,0,0,.3-.89A1.26,1.26,0,0,0,48.68,25.91Z"/><path class="cls-2" d="M54.24,29.1a1.91,1.91,0,0,1-.82-.66,1.84,1.84,0,0,1-.33-1h1.54a.79.79,0,0,0,.23.53.72.72,0,0,0,.51.18.76.76,0,0,0,.5-.15.53.53,0,0,0,.19-.43.52.52,0,0,0-.15-.38,1.36,1.36,0,0,0-.36-.25l-.61-.22a5.25,5.25,0,0,1-.94-.37,1.79,1.79,0,0,1-.63-.54,1.61,1.61,0,0,1-.26-.94,1.66,1.66,0,0,1,.6-1.36,2.76,2.76,0,0,1,3.14,0,1.8,1.8,0,0,1,.65,1.36H55.93a.65.65,0,0,0-.21-.47.74.74,0,0,0-.5-.17.6.6,0,0,0-.42.15.5.5,0,0,0-.16.41.53.53,0,0,0,.27.47,4.37,4.37,0,0,0,.85.36,9.4,9.4,0,0,1,.93.39,1.68,1.68,0,0,1,.62.54,1.48,1.48,0,0,1,.26.9,1.73,1.73,0,0,1-.26,1,1.83,1.83,0,0,1-.74.69,2.51,2.51,0,0,1-1.16.26A3.13,3.13,0,0,1,54.24,29.1Z"/><path class="cls-2" d="M58.45,25.46a2.08,2.08,0,0,1,.74-.88,1.88,1.88,0,0,1,1.06-.31,1.75,1.75,0,0,1,.87.21,1.43,1.43,0,0,1,.58.56v-.7h1.45v4.91H61.7v-.69a1.54,1.54,0,0,1-.58.55,1.79,1.79,0,0,1-.88.21A1.87,1.87,0,0,1,59.19,29a2.11,2.11,0,0,1-.74-.89,3.3,3.3,0,0,1,0-2.66Zm2.95.45a1,1,0,0,0-.73-.33,1,1,0,0,0-.73.32,1.26,1.26,0,0,0-.3.89,1.28,1.28,0,0,0,.3.89,1,1,0,0,0,.73.33,1,1,0,0,0,.73-.32,1.28,1.28,0,0,0,.3-.89A1.26,1.26,0,0,0,61.4,25.91Z"/><path class="cls-2" d="M65.64,22.74v6.51H64.2V22.74Z"/><path class="cls-2" d="M71.11,27.16H67.84a1,1,0,0,0,.28.7.85.85,0,0,0,.61.24.75.75,0,0,0,.75-.48H71a2.31,2.31,0,0,1-.42.88,2.21,2.21,0,0,1-.78.6,2.33,2.33,0,0,1-1,.22,2.49,2.49,0,0,1-1.23-.3,2.25,2.25,0,0,1-.85-.88,3.14,3.14,0,0,1,0-2.68,2.1,2.1,0,0,1,.84-.88,2.63,2.63,0,0,1,2.46,0,2.12,2.12,0,0,1,.83.85,2.71,2.71,0,0,1,.3,1.3C71.13,26.86,71.12,27,71.11,27.16Zm-1.46-.84a.76.76,0,0,0-.25-.61.88.88,0,0,0-.63-.23.89.89,0,0,0-.62.22.94.94,0,0,0-.3.62Z"/><path class="cls-3" d="M36.87,4.46a5.52,5.52,0,0,0-3.48-1,5.44,5.44,0,0,0-3.44,1,3.2,3.2,0,0,0-1.24,2.71A3,3,0,0,0,29.23,9a3.65,3.65,0,0,0,1.32,1.11,15.43,15.43,0,0,0,2.18.82,15.62,15.62,0,0,1,1.52.53,3.47,3.47,0,0,1,1,.67,1.66,1.66,0,0,1,.5,1.23,1.7,1.7,0,0,1-.63,1.37,2.38,2.38,0,0,1-1.53.46,2.27,2.27,0,0,1-1.55-.54,2.16,2.16,0,0,1-.63-1.08H28.71a3.41,3.41,0,0,0,.64,1.59,4,4,0,0,0,1.76,1.34h0a6.85,6.85,0,0,0,2.6.46,5.58,5.58,0,0,0,2.55-.53,3.92,3.92,0,0,0,1.41-1.14V11.13a3.72,3.72,0,0,0-1.11-.88,18,18,0,0,0-2.18-.86,11,11,0,0,1-2.12-.88A1.69,1.69,0,0,1,31.37,7a1.69,1.69,0,0,1,.56-1.34,2,2,0,0,1,1.34-.46,2.31,2.31,0,0,1,1.52.52,1.8,1.8,0,0,1,.6,1h2.28V5.35A3.22,3.22,0,0,0,36.87,4.46Z"/><path class="cls-3" d="M37.85,15.06a3.6,3.6,0,0,0,.55-1.94,2.77,2.77,0,0,0-.53-1.78c-.06-.08-.14-.14-.2-.21v4.19A2.4,2.4,0,0,0,37.85,15.06Z"/><path class="cls-3" d="M37.67,5.35V6.69h.49A3.58,3.58,0,0,0,37.67,5.35Z"/><path class="cls-3" d="M36.78,9.8a18.92,18.92,0,0,0-2.24-.89,10.69,10.69,0,0,1-2-.83A1.19,1.19,0,0,1,31.87,7a1.19,1.19,0,0,1,.39-1,1.44,1.44,0,0,1,1-.34,1.75,1.75,0,0,1,1.19.4A1.47,1.47,0,0,1,35,7.19h2.7v-.5H35.39a1.8,1.8,0,0,0-.6-1,2.31,2.31,0,0,0-1.52-.52,2,2,0,0,0-1.34.46A1.69,1.69,0,0,0,31.37,7a1.69,1.69,0,0,0,.89,1.5,11,11,0,0,0,2.12.88,18,18,0,0,1,2.18.86,3.72,3.72,0,0,1,1.11.88v-.72A4.4,4.4,0,0,0,36.78,9.8Z"/><path class="cls-3" d="M36.26,16.46a5.58,5.58,0,0,1-2.55.53,6.85,6.85,0,0,1-2.6-.46h0a4,4,0,0,1-1.76-1.34,3.41,3.41,0,0,1-.64-1.59h2.72a2.16,2.16,0,0,0,.63,1.08,2.27,2.27,0,0,0,1.55.54,2.38,2.38,0,0,0,1.53-.46,1.7,1.7,0,0,0,.63-1.37,1.66,1.66,0,0,0-.5-1.23,3.47,3.47,0,0,0-1-.67A15.62,15.62,0,0,0,32.73,11a15.43,15.43,0,0,1-2.18-.82A3.65,3.65,0,0,1,29.23,9a3,3,0,0,1-.52-1.86A3.2,3.2,0,0,1,30,4.46a5.44,5.44,0,0,1,3.44-1,5.52,5.52,0,0,1,3.48,1,3.22,3.22,0,0,1,.8.89V4.54a4.56,4.56,0,0,0-.5-.48,6,6,0,0,0-3.78-1.12,5.91,5.91,0,0,0-3.75,1.12,3.75,3.75,0,0,0-1.43,3.11,3.58,3.58,0,0,0,.62,2.17,4.16,4.16,0,0,0,1.5,1.25,15.91,15.91,0,0,0,2.25.85,14.69,14.69,0,0,1,1.47.51,3,3,0,0,1,.87.57,1.15,1.15,0,0,1,.35.87,1.21,1.21,0,0,1-.44,1,2,2,0,0,1-1.22.35,1.64,1.64,0,0,1-1.76-1.62H28.17A4,4,0,0,0,29,15.49a4.58,4.58,0,0,0,2,1.5,7.23,7.23,0,0,0,2.79.5,6.19,6.19,0,0,0,2.78-.58,4.66,4.66,0,0,0,1.18-.84v-.75A3.92,3.92,0,0,1,36.26,16.46Z"/><path class="cls-3" d="M38.16,6.69h-.49v.5h1a4.1,4.1,0,0,0-1-2.65v.81A3.58,3.58,0,0,1,38.16,6.69Z"/><path class="cls-3" d="M37.87,11.34a2.77,2.77,0,0,1,.53,1.78,3.6,3.6,0,0,1-.55,1.94,2.4,2.4,0,0,1-.18.26v.75a3.94,3.94,0,0,0,.61-.74,4.12,4.12,0,0,0,.62-2.21A3.28,3.28,0,0,0,38.27,11a5.16,5.16,0,0,0-.6-.63v.72C37.73,11.2,37.81,11.26,37.87,11.34Z"/><path class="cls-1" d="M30.92,17a4.58,4.58,0,0,1-2-1.5,4,4,0,0,1-.78-2.39h3.68a1.64,1.64,0,0,0,1.76,1.62,2,2,0,0,0,1.22-.35,1.21,1.21,0,0,0,.44-1,1.15,1.15,0,0,0-.35-.87,3,3,0,0,0-.87-.57,14.69,14.69,0,0,0-1.47-.51,15.91,15.91,0,0,1-2.25-.85,4.16,4.16,0,0,1-1.5-1.25,3.58,3.58,0,0,1-.62-2.17,3.75,3.75,0,0,1,1.43-3.11,5.91,5.91,0,0,1,3.75-1.12,6,6,0,0,1,3.78,1.12,4,4,0,0,1,1.54,3.13H35a1.47,1.47,0,0,0-.51-1.08,1.75,1.75,0,0,0-1.19-.4,1.44,1.44,0,0,0-1,.34,1.19,1.19,0,0,0-.39,1,1.19,1.19,0,0,0,.65,1.07,10.69,10.69,0,0,0,2,.83,18.92,18.92,0,0,1,2.24.89A4.4,4.4,0,0,1,38.27,11a3.28,3.28,0,0,1,.63,2.08,4.12,4.12,0,0,1-.62,2.21,4.33,4.33,0,0,1-1.79,1.58,6.19,6.19,0,0,1-2.78.58A7.23,7.23,0,0,1,30.92,17Z"/><path class="cls-3" d="M51.4,16.81a5.23,5.23,0,0,1-2.09-2,6.11,6.11,0,0,1-.76-3.08,6,6,0,0,1,.77-3.06,5.31,5.31,0,0,1,2.11-2,6.76,6.76,0,0,1,6,0,5.31,5.31,0,0,1,2.11,2,6,6,0,0,1,.77,3.06,5.91,5.91,0,0,1-.78,3.07,5.29,5.29,0,0,1-2.13,2,6.4,6.4,0,0,1-3,.71A6.25,6.25,0,0,1,51.4,16.81Zm4.67-3a2.89,2.89,0,0,0,.7-2.09,3,3,0,0,0-.67-2.08,2.19,2.19,0,0,0-1.67-.73,2.21,2.21,0,0,0-1.69.72,3,3,0,0,0-.66,2.09,3.06,3.06,0,0,0,.65,2.09,2.12,2.12,0,0,0,1.65.73A2.22,2.22,0,0,0,56.07,13.79Z"/><path class="cls-4" d="M65.6,8.91a2.33,2.33,0,0,0-1.75.75,2.82,2.82,0,0,0-.72,2,2.83,2.83,0,0,0,.72,2.05,2.42,2.42,0,0,0,3.51,0,2.88,2.88,0,0,0,.73-2.06,2.78,2.78,0,0,0-.72-2A2.39,2.39,0,0,0,65.6,8.91Z"/><path class="cls-4" d="M57.19,7.05a6.12,6.12,0,0,0-5.53,0,4.67,4.67,0,0,0-1.9,1.84,5.48,5.48,0,0,0-.71,2.81,5.55,5.55,0,0,0,.7,2.83,4.75,4.75,0,0,0,1.88,1.84,6.22,6.22,0,0,0,5.53,0,4.75,4.75,0,0,0,1.93-1.84,5.17,5.17,0,0,0,.6-1.68V10.57a5,5,0,0,0-.6-1.68A4.67,4.67,0,0,0,57.19,7.05Zm-.75,7.09a2.8,2.8,0,0,1-2.06.88,2.64,2.64,0,0,1-2-.89,3.53,3.53,0,0,1-.78-2.43,3.46,3.46,0,0,1,.8-2.43,2.79,2.79,0,0,1,4.08,0,3.42,3.42,0,0,1,.81,2.42A3.42,3.42,0,0,1,56.44,14.14Z"/><path class="cls-1" d="M59.8,11.7a6.87,6.87,0,0,0-.11-1.13v2.27A7,7,0,0,0,59.8,11.7Z"/><path class="cls-1" d="M71,8.63a4.93,4.93,0,0,0-1.79-2,4.7,4.7,0,0,0-2.53-.7,4.29,4.29,0,0,0-2.08.48,3.69,3.69,0,0,0-1.4,1.28V6.06H59.69V8c.09.14.19.26.27.41a6.54,6.54,0,0,1,.84,3.31A6.52,6.52,0,0,1,60,15c-.08.13-.18.25-.26.38v7.33h3.46v-7A3.68,3.68,0,0,0,64.56,17a4.34,4.34,0,0,0,2.07.49,4.63,4.63,0,0,0,2.53-.72A4.93,4.93,0,0,0,71,14.75a6.77,6.77,0,0,0,.66-3.07A6.71,6.71,0,0,0,71,8.63Zm-3.59,5.11a2.42,2.42,0,0,1-3.51,0,2.83,2.83,0,0,1-.72-2.05,2.82,2.82,0,0,1,.72-2,2.33,2.33,0,0,1,1.75-.75,2.39,2.39,0,0,1,1.77.74,2.78,2.78,0,0,1,.72,2A2.88,2.88,0,0,1,67.36,13.74Z"/><path class="cls-1" d="M48.05,11.7a6.68,6.68,0,0,1,.59-2.8,4.21,4.21,0,0,0-.91-1.68,4,4,0,0,0-3.12-1.28,4.5,4.5,0,0,0-2,.44,3.72,3.72,0,0,0-1.44,1.2V2.37H37.67V3.85a4.53,4.53,0,0,1,1.54,3.32l0,.52H37.67v2.1a4.62,4.62,0,0,1,1,.94,3.79,3.79,0,0,1,.74,2.39,4.61,4.61,0,0,1-.7,2.47,4.5,4.5,0,0,1-1,1.15v.61h3.46V11.22a2.48,2.48,0,0,1,.58-1.76,2.07,2.07,0,0,1,1.58-.63,2,2,0,0,1,1.58.63,2.48,2.48,0,0,1,.59,1.76v6.13H48.9V15.06l0,0A6.56,6.56,0,0,1,48.05,11.7Z"/><path class="cls-1" d="M51.4,16.81a5.23,5.23,0,0,1-2.09-2,6.11,6.11,0,0,1-.76-3.08,6,6,0,0,1,.77-3.06,5.31,5.31,0,0,1,2.11-2,6.76,6.76,0,0,1,6,0,5.31,5.31,0,0,1,2.11,2,6,6,0,0,1,.77,3.06,5.91,5.91,0,0,1-.78,3.07,5.29,5.29,0,0,1-2.13,2,6.4,6.4,0,0,1-3,.71A6.25,6.25,0,0,1,51.4,16.81Zm4.67-3a2.89,2.89,0,0,0,.7-2.09,3,3,0,0,0-.67-2.08,2.19,2.19,0,0,0-1.67-.73,2.21,2.21,0,0,0-1.69.72,3,3,0,0,0-.66,2.09,3.06,3.06,0,0,0,.65,2.09,2.12,2.12,0,0,0,1.65.73A2.22,2.22,0,0,0,56.07,13.79Z"/></svg>