<?xml version="1.0" encoding="utf-8"?>
<!-- Generator: Adobe Illustrator 26.0.0, SVG Export Plug-In . SVG Version: 6.00 Build 0)  -->
<svg version="1.1" id="Capa_1" xmlns="http://www.w3.org/2000/svg" xmlns:xlink="http://www.w3.org/1999/xlink" x="0px" y="0px"
	 viewBox="0 0 83.7 31.3" style="enable-background:new 0 0 83.7 31.3;" xml:space="preserve">
<style type="text/css">
	.st0{fill:#4B0082;}
	.st1{fill:#1C003A;}
	.st2{fill:#FFFFFF;}
	.st3{fill:none;}
</style>
<g>
	<path class="st0" d="M28.1,21.7c-0.8-1.7-2-3.1-3.4-4.4c-0.1-0.1-0.2-0.2-0.2-0.3c-1.3-3.3-2.7-6.6-4-10c-0.1-0.3-0.3-0.4-0.6-0.3
		c-0.7,0.1-1.4,0.2-2.1,0.4c0-0.2-0.1-0.3-0.1-0.4c-0.1-0.8-0.2-1.6-0.4-2.4c-0.2-1-0.4-2-0.9-2.9c-0.5-0.8-1.2-1.1-2.1-1.1
		c-0.8,0-1.4,0.6-1.6,1.3c-0.3,0.7-0.4,1.5-0.6,2.3c-0.1,0.3-0.1,0.5-0.1,0.8c-0.7-0.6-1.4-1.2-2.1-1.7C9.5,2.8,9,2.5,8.4,2.3
		C7.5,2,6.8,2.3,6.3,3.1c-0.6,0.9-0.5,1.8,0,2.6c0.4,0.8,1,1.6,1.5,2.4C7.8,8.4,8,8.5,8.2,8.8C7.6,8.7,7.5,9.1,7.3,9.5
		C7.2,9.6,7.1,9.8,7.1,10c-0.1,0.2-0.2,0.3-0.5,0.3c-0.4-0.1-0.7-0.1-1.1-0.1C6,17.1,6.5,23.9,7,30.8c0.8-0.5,1.5-1.1,2.3-1.5
		c1.2-0.7,0.8-0.7,2,0c0.8,0.5,1.5,1,2.3,1.5c-1-3.5-2.1-7.1-3.1-10.7c-1-3.6-2-7.3-3-10.9c0,0,0.1,0,0.1,0
		C9.9,16.3,12,23.6,13.8,31c0.2-0.1,0.3-0.1,0.5-0.2c3.5-1.6,6.9-3.2,10.4-4.8c0.5-0.2,0.5-0.2,0.9,0.2c0.3,0.3,0.6,0.3,0.9,0
		c0.8-0.8,1.6-1.6,2.5-2.5c0.3-0.4,0.3-0.6,0-0.9C28.7,22.4,28.3,22.1,28.1,21.7z M10.3,28.5c-1.4-6-2.5-12-3.4-18
		C8.3,16.4,9.4,22.4,10.3,28.5z M8.7,8.5C8,7.5,7.1,6.4,6.7,5.2C6.4,4.5,6.4,3.9,6.8,3.3c0.3-0.4,0.8-0.7,1.3-0.5
		c0.5,0.2,1,0.4,1.5,0.7c0.8,0.6,1.6,1.3,2.3,2c0.1,0.1,0.1,0.2,0.1,0.3c0,0.3,0,0.7,0,1c0,0,0,0-0.1,0c0,0.3,0,0.7,0,1
		c0,0.2-0.1,0.3-0.3,0.3C10.9,8.3,10,8.5,9.1,8.6C9,8.6,8.8,8.6,8.7,8.5z M11.3,11.5c-0.4-0.1-0.7-0.5-0.6-0.9
		c0.1-0.4,0.5-0.6,1-0.5c0,0.2,0,0.3-0.3,0.3c-0.2,0-0.4,0.1-0.3,0.4c0,0.2,0.2,0.3,0.4,0.2c0.2-0.1,0.4-0.2,0.6-0.2
		C12.1,11.3,11.7,11.6,11.3,11.5z M12.7,8c0-0.6,0-1.1,0-1.8c0.6,0.5,1.1,1,1.6,1.5C13.7,7.8,13.2,7.9,12.7,8z M14,19.7
		c0-0.6,0-1.1,0-1.7c0.8,0.3,1.7,0.5,2.5,0.8c0,0,0,0.1,0,0.1C15.7,19.2,14.9,19.4,14,19.7z M14.9,16.3c0.4-0.4,0.8-0.8,1.2-1.2
		c0.4,0.8,0.8,1.5,1.2,2.2c0,0,0,0.1-0.1,0.1C16.4,17.1,15.7,16.7,14.9,16.3z M16.1,22.5c-0.4-0.4-0.8-0.8-1.2-1.2
		c0.8-0.4,1.5-0.8,2.3-1.2c0,0,0.1,0.1,0.1,0.1C16.9,21.1,16.5,21.8,16.1,22.5z M15.3,7.5c-0.1,0-0.2,0-0.3-0.1
		c-0.7-0.6-1.4-1.3-2.1-1.9c-0.1-0.1-0.1-0.2-0.1-0.3c0.1-0.9,0.3-1.9,0.4-2.8c0-0.2,0.1-0.3,0.2-0.5c0.2-0.5,0.5-0.9,1.1-1
		c0.7,0,1.2,0.2,1.6,0.8c0.4,0.7,0.6,1.5,0.8,2.4c0.2,1,0.3,2,0.5,3.1C16.6,7.3,15.9,7.4,15.3,7.5z M21.1,15.2
		c0.4,0.4,0.8,0.8,1.2,1.2c-0.7,0.4-1.5,0.8-2.2,1.2c0,0-0.1-0.1-0.1-0.1C20.3,16.7,20.7,15.9,21.1,15.2z M17.8,9.2
		c0.2,0.2,0.3,0.3,0.4,0.5c0.2,0.2,0.4,0.2,0.5,0c0.2-0.2,0.1-0.3-0.1-0.5c-0.1-0.1-0.2-0.2-0.3-0.4c0.4-0.1,0.6,0,0.8,0.3
		c0.2,0.3,0.1,0.6-0.1,0.9c-0.2,0.2-0.6,0.3-0.9,0.1C17.8,10,17.7,9.7,17.8,9.2z M19.4,14.3c-0.3,0.8-0.5,1.7-0.8,2.5
		c0,0-0.1,0-0.1,0c-0.3-0.8-0.5-1.6-0.8-2.5C18.3,14.3,18.9,14.3,19.4,14.3z M25.1,25.1c-0.1,0.1-0.2,0.1-0.3,0.1
		c-1-0.2-2-0.5-3-0.7c-0.5-0.1-1.1-0.3-1.6-0.5c-0.4-0.2-0.6-0.3-0.5-0.7c0.1-0.3,0.3-0.4,0.7-0.4c0.3,0,0.7,0.1,1,0.2
		c0.1,0,0.2,0,0.3-0.1c0-0.1-0.1-0.2-0.1-0.3c-1-1-2.1-2.1-3.1-3.1c-0.2-0.2-0.3-0.3-0.5-0.5c-0.2-0.3-0.2-0.6,0-0.8
		c0.2-0.2,0.6-0.2,0.8,0c0.9,0.9,1.8,1.8,2.7,2.7c0.1,0.1,0.1,0.2,0.2,0.2c0.1,0,0.2,0,0.3,0c0-0.1,0-0.2,0-0.3
		c-0.3-0.3-0.6-0.6-0.9-0.9c-0.1-0.1-0.3-0.3-0.4-0.4c-0.2-0.2-0.2-0.5,0-0.8c0.2-0.2,0.5-0.2,0.8,0c0.4,0.3,0.7,0.7,1.1,1
		c0.1,0.1,0.2,0.4,0.4,0.2c0.2-0.2-0.1-0.3-0.2-0.4c-0.2-0.2-0.4-0.3-0.5-0.5c-0.3-0.3-0.3-0.6,0-0.8c0.2-0.2,0.5-0.2,0.8,0
		c0.3,0.3,0.7,0.7,1,1c0.1,0.1,0.2,0.1,0.4,0.1c0-0.1,0-0.3-0.1-0.3c-0.2-0.2-0.4-0.4-0.6-0.6c-0.3-0.3-0.3-0.6,0-0.8
		c0.2-0.2,0.5-0.2,0.8,0c1.4,1.3,2.6,2.7,3.4,4.6C27,23.1,26,24.1,25.1,25.1z M28.9,23.4c-0.8,0.9-1.7,1.7-2.6,2.6
		c-0.1,0.1-0.3,0.1-0.4,0c-0.2-0.2-0.5-0.4-0.7-0.6c1-1,2-2,3-3c0.2,0.2,0.4,0.4,0.6,0.7C28.9,23.2,28.9,23.4,28.9,23.4z"/>
	<path class="st0" d="M7.3,30.9c2.1,0,4.2,0,6.1,0c-0.9-0.6-2-1.4-3-2C9.4,29.6,8.3,30.2,7.3,30.9z"/>
</g>
<rect x="30.2" y="19.5" class="st1" width="29.2" height="1.5"/>
<rect x="63.5" y="19.5" class="st1" width="7.6" height="1.5"/>
<g>
	<g>
		<path class="st1" d="M35.8,23.1l-2.1,4.1v2h-1.4v-2l-2.1-4.1h1.6l1.1,2.6l1.1-2.6H35.8z"/>
		<path class="st1" d="M36.4,25.5c0.2-0.4,0.4-0.7,0.7-0.9c0.3-0.2,0.7-0.3,1.1-0.3c0.3,0,0.6,0.1,0.9,0.2c0.3,0.1,0.4,0.3,0.6,0.6
			v-0.7h1.4v4.9h-1.4v-0.7c-0.1,0.2-0.3,0.4-0.6,0.6c-0.3,0.1-0.5,0.2-0.9,0.2c-0.4,0-0.7-0.1-1-0.3s-0.6-0.5-0.7-0.9
			c-0.2-0.4-0.3-0.8-0.3-1.3C36.1,26.3,36.2,25.8,36.4,25.5z M39.3,25.9c-0.2-0.2-0.4-0.3-0.7-0.3s-0.5,0.1-0.7,0.3
			c-0.2,0.2-0.3,0.5-0.3,0.9c0,0.4,0.1,0.7,0.3,0.9c0.2,0.2,0.4,0.3,0.7,0.3s0.5-0.1,0.7-0.3c0.2-0.2,0.3-0.5,0.3-0.9
			S39.5,26.1,39.3,25.9z"/>
		<path class="st1" d="M44.2,24.5c0.3-0.2,0.5-0.2,0.8-0.2v1.6h-0.4c-0.4,0-0.6,0.1-0.8,0.2c-0.2,0.2-0.3,0.4-0.3,0.8v2.3h-1.4v-4.9
			h1.4v0.8C43.7,24.9,43.9,24.7,44.2,24.5z"/>
		<path class="st1" d="M45.7,25.5c0.2-0.4,0.4-0.7,0.7-0.9c0.3-0.2,0.7-0.3,1.1-0.3c0.3,0,0.6,0.1,0.8,0.2c0.3,0.1,0.5,0.3,0.6,0.5
			v-2.3h1.4v6.5H49v-0.7c-0.1,0.2-0.3,0.4-0.6,0.6c-0.3,0.1-0.5,0.2-0.9,0.2c-0.4,0-0.7-0.1-1.1-0.3s-0.6-0.5-0.7-0.9
			c-0.2-0.4-0.3-0.8-0.3-1.3C45.4,26.3,45.5,25.8,45.7,25.5z M48.7,25.9c-0.2-0.2-0.4-0.3-0.7-0.3c-0.3,0-0.5,0.1-0.7,0.3
			c-0.2,0.2-0.3,0.5-0.3,0.9c0,0.4,0.1,0.7,0.3,0.9c0.2,0.2,0.4,0.3,0.7,0.3c0.3,0,0.5-0.1,0.7-0.3c0.2-0.2,0.3-0.5,0.3-0.9
			S48.9,26.1,48.7,25.9z"/>
		<path class="st1" d="M54.2,29.1c-0.3-0.1-0.6-0.4-0.8-0.7c-0.2-0.3-0.3-0.6-0.3-1h1.5c0,0.2,0.1,0.4,0.2,0.5
			c0.1,0.1,0.3,0.2,0.5,0.2c0.2,0,0.4-0.1,0.5-0.2c0.1-0.1,0.2-0.2,0.2-0.4c0-0.2,0-0.3-0.1-0.4c-0.1-0.1-0.2-0.2-0.4-0.2
			c-0.1-0.1-0.3-0.1-0.6-0.2c-0.4-0.1-0.7-0.2-0.9-0.4c-0.2-0.1-0.5-0.3-0.6-0.5c-0.2-0.2-0.3-0.6-0.3-0.9c0-0.6,0.2-1,0.6-1.4
			c0.4-0.3,0.9-0.5,1.6-0.5c0.7,0,1.2,0.2,1.6,0.5c0.4,0.3,0.6,0.8,0.6,1.4h-1.6c0-0.2-0.1-0.4-0.2-0.5s-0.3-0.2-0.5-0.2
			c-0.2,0-0.3,0-0.4,0.1c-0.1,0.1-0.2,0.2-0.2,0.4c0,0.2,0.1,0.4,0.3,0.5s0.5,0.2,0.8,0.4c0.4,0.1,0.7,0.3,0.9,0.4
			c0.2,0.1,0.4,0.3,0.6,0.5c0.2,0.2,0.3,0.5,0.3,0.9c0,0.4-0.1,0.7-0.3,1s-0.4,0.5-0.7,0.7c-0.3,0.2-0.7,0.3-1.2,0.3
			C55,29.3,54.6,29.2,54.2,29.1z"/>
		<path class="st1" d="M58.4,25.5c0.2-0.4,0.4-0.7,0.7-0.9c0.3-0.2,0.7-0.3,1.1-0.3c0.3,0,0.6,0.1,0.9,0.2c0.3,0.1,0.4,0.3,0.6,0.6
			v-0.7h1.4v4.9h-1.4v-0.7c-0.1,0.2-0.3,0.4-0.6,0.6c-0.3,0.1-0.5,0.2-0.9,0.2c-0.4,0-0.7-0.1-1-0.3s-0.6-0.5-0.7-0.9
			c-0.2-0.4-0.3-0.8-0.3-1.3C58.2,26.3,58.3,25.8,58.4,25.5z M61.4,25.9c-0.2-0.2-0.4-0.3-0.7-0.3s-0.5,0.1-0.7,0.3
			c-0.2,0.2-0.3,0.5-0.3,0.9c0,0.4,0.1,0.7,0.3,0.9c0.2,0.2,0.4,0.3,0.7,0.3s0.5-0.1,0.7-0.3c0.2-0.2,0.3-0.5,0.3-0.9
			S61.6,26.1,61.4,25.9z"/>
		<path class="st1" d="M65.6,22.7v6.5h-1.4v-6.5H65.6z"/>
		<path class="st1" d="M71.1,27.2h-3.3c0,0.3,0.1,0.5,0.3,0.7c0.2,0.2,0.4,0.2,0.6,0.2c0.4,0,0.6-0.2,0.8-0.5H71
			c-0.1,0.3-0.2,0.6-0.4,0.9s-0.5,0.5-0.8,0.6c-0.3,0.1-0.7,0.2-1,0.2c-0.5,0-0.9-0.1-1.2-0.3c-0.4-0.2-0.6-0.5-0.8-0.9
			c-0.2-0.4-0.3-0.8-0.3-1.3c0-0.5,0.1-1,0.3-1.3s0.5-0.7,0.8-0.9c0.4-0.2,0.8-0.3,1.2-0.3c0.5,0,0.9,0.1,1.2,0.3
			c0.4,0.2,0.6,0.5,0.8,0.9c0.2,0.4,0.3,0.8,0.3,1.3C71.1,26.9,71.1,27,71.1,27.2z M69.7,26.3c0-0.3-0.1-0.5-0.3-0.6
			c-0.2-0.2-0.4-0.2-0.6-0.2c-0.2,0-0.4,0.1-0.6,0.2c-0.2,0.1-0.3,0.4-0.3,0.6H69.7z"/>
	</g>
</g>
<g>
	<path class="st2" d="M36.9,4.5c-0.9-0.7-2-1-3.5-1c-1.4,0-2.6,0.3-3.4,1c-0.8,0.7-1.2,1.5-1.2,2.7c0,0.8,0.2,1.4,0.5,1.9
		c0.4,0.5,0.8,0.9,1.3,1.1c0.6,0.3,1.3,0.5,2.2,0.8c0.7,0.2,1.2,0.4,1.5,0.5c0.4,0.2,0.7,0.4,1,0.7c0.3,0.3,0.5,0.7,0.5,1.2
		c0,0.6-0.2,1-0.6,1.4c-0.4,0.3-0.9,0.5-1.5,0.5c-0.6,0-1.1-0.2-1.5-0.5c-0.3-0.3-0.5-0.6-0.6-1.1h-2.7c0.1,0.6,0.3,1.1,0.6,1.6
		c0.4,0.6,1,1,1.8,1.3l0,0c0.8,0.3,1.6,0.5,2.6,0.5c1,0,1.8-0.2,2.6-0.5c0.6-0.3,1.1-0.7,1.4-1.1v-4.2c-0.3-0.4-0.7-0.7-1.1-0.9
		C36,10,35.3,9.7,34.4,9.4c-1-0.3-1.7-0.6-2.1-0.9c-0.6-0.3-0.9-0.9-0.9-1.5c0-0.6,0.2-1,0.6-1.3c0.3-0.3,0.8-0.5,1.3-0.5
		c0.6,0,1.1,0.2,1.5,0.5c0.3,0.3,0.5,0.6,0.6,1h2.3V5.3C37.5,5,37.2,4.7,36.9,4.5z"/>
	<path class="st2" d="M37.9,15.1c0.4-0.6,0.5-1.2,0.5-1.9c0-0.7-0.2-1.3-0.5-1.8c-0.1-0.1-0.1-0.1-0.2-0.2v4.2
		C37.7,15.2,37.8,15.2,37.9,15.1z"/>
	<path class="st2" d="M37.7,5.3v1.3h0.5C38.1,6.2,37.9,5.7,37.7,5.3z"/>
	<path class="st2" d="M36.8,9.8c-0.6-0.3-1.3-0.6-2.2-0.9c-0.9-0.3-1.6-0.6-2-0.8c-0.4-0.3-0.6-0.6-0.6-1.1c0-0.4,0.1-0.7,0.4-1
		c0.3-0.2,0.6-0.3,1-0.3c0.5,0,0.9,0.1,1.2,0.4c0.3,0.3,0.5,0.6,0.5,1.1h2.7V6.7h-2.3c-0.1-0.4-0.3-0.7-0.6-1
		c-0.4-0.3-0.9-0.5-1.5-0.5c-0.5,0-1,0.2-1.3,0.5C31.6,6,31.4,6.4,31.4,7c0,0.6,0.3,1.2,0.9,1.5c0.5,0.3,1.2,0.6,2.1,0.9
		c0.9,0.3,1.6,0.6,2.2,0.9c0.4,0.2,0.8,0.5,1.1,0.9v-0.7C37.4,10.2,37.1,10,36.8,9.8z"/>
	<path class="st2" d="M36.3,16.5c-0.7,0.4-1.6,0.5-2.6,0.5c-1,0-1.8-0.2-2.6-0.5l0,0c-0.7-0.3-1.3-0.7-1.8-1.3
		c-0.3-0.5-0.5-1-0.6-1.6h2.7c0.1,0.4,0.3,0.8,0.6,1.1c0.4,0.4,0.9,0.5,1.5,0.5c0.6,0,1.1-0.2,1.5-0.5c0.4-0.3,0.6-0.8,0.6-1.4
		c0-0.5-0.2-0.9-0.5-1.2c-0.3-0.3-0.6-0.5-1-0.7c-0.4-0.2-0.9-0.3-1.5-0.5c-0.9-0.3-1.6-0.6-2.2-0.8C30,9.9,29.6,9.5,29.2,9
		c-0.3-0.5-0.5-1.1-0.5-1.9c0-1.2,0.4-2.1,1.2-2.7c0.9-0.7,2-1,3.4-1c1.4,0,2.6,0.3,3.5,1c0.3,0.3,0.6,0.6,0.8,0.9V4.5
		c-0.2-0.2-0.3-0.3-0.5-0.5c-1-0.7-2.2-1.1-3.8-1.1c-1.5,0-2.8,0.4-3.7,1.1c-1,0.7-1.4,1.8-1.4,3.1c0,0.9,0.2,1.6,0.6,2.2
		c0.4,0.6,0.9,1,1.5,1.3c0.6,0.3,1.3,0.6,2.2,0.9c0.6,0.2,1.1,0.4,1.5,0.5c0.3,0.1,0.6,0.3,0.9,0.6c0.2,0.2,0.4,0.5,0.4,0.9
		c0,0.4-0.1,0.7-0.4,1c-0.3,0.2-0.7,0.4-1.2,0.4c-0.5,0-0.9-0.1-1.2-0.4c-0.3-0.3-0.5-0.7-0.5-1.2h-3.7c0,0.9,0.3,1.7,0.8,2.4
		c0.5,0.7,1.2,1.2,2,1.5c0.8,0.3,1.8,0.5,2.8,0.5c1.1,0,2-0.2,2.8-0.6c0.5-0.2,0.8-0.5,1.2-0.8v-0.8C37.3,15.8,36.9,16.2,36.3,16.5z
		"/>
	<path class="st2" d="M38.2,6.7h-0.5v0.5h1c-0.1-1.1-0.4-2-1-2.7v0.8C37.9,5.7,38.1,6.2,38.2,6.7z"/>
	<path class="st2" d="M37.9,11.3c0.4,0.5,0.5,1,0.5,1.8c0,0.7-0.2,1.4-0.5,1.9c-0.1,0.1-0.1,0.2-0.2,0.3v0.8
		c0.2-0.2,0.4-0.5,0.6-0.7c0.4-0.7,0.6-1.4,0.6-2.2c0-0.9-0.2-1.5-0.6-2.1c-0.2-0.2-0.4-0.4-0.6-0.6v0.7
		C37.7,11.2,37.8,11.3,37.9,11.3z"/>
</g>
<path class="st0" d="M30.9,17c-0.8-0.3-1.5-0.8-2-1.5c-0.5-0.7-0.8-1.5-0.8-2.4h3.7c0.1,0.5,0.2,0.9,0.5,1.2
	c0.3,0.3,0.7,0.4,1.2,0.4c0.5,0,0.9-0.1,1.2-0.4c0.3-0.2,0.4-0.6,0.4-1c0-0.4-0.1-0.6-0.4-0.9c-0.2-0.2-0.5-0.4-0.9-0.6
	c-0.3-0.1-0.8-0.3-1.5-0.5c-0.9-0.3-1.7-0.6-2.2-0.9c-0.6-0.3-1.1-0.7-1.5-1.3c-0.4-0.6-0.6-1.3-0.6-2.2c0-1.3,0.5-2.4,1.4-3.1
	c1-0.7,2.2-1.1,3.7-1.1c1.6,0,2.8,0.4,3.8,1.1s1.5,1.8,1.5,3.1H35c0-0.5-0.2-0.8-0.5-1.1c-0.3-0.3-0.7-0.4-1.2-0.4
	c-0.4,0-0.8,0.1-1,0.3c-0.3,0.2-0.4,0.5-0.4,1c0,0.5,0.2,0.8,0.6,1.1c0.4,0.3,1.1,0.5,2,0.8c0.9,0.3,1.7,0.6,2.2,0.9
	c0.6,0.3,1.1,0.7,1.5,1.2c0.4,0.5,0.6,1.2,0.6,2.1c0,0.8-0.2,1.5-0.6,2.2c-0.4,0.7-1,1.2-1.8,1.6c-0.8,0.4-1.7,0.6-2.8,0.6
	C32.7,17.5,31.7,17.3,30.9,17z"/>
<g>
	<path class="st2" d="M51.4,16.8c-0.9-0.5-1.6-1.1-2.1-2c-0.5-0.9-0.8-1.9-0.8-3.1c0-1.2,0.3-2.2,0.8-3.1c0.5-0.9,1.2-1.6,2.1-2
		c0.9-0.5,1.9-0.7,3-0.7c1.1,0,2.1,0.2,3,0.7c0.9,0.5,1.6,1.2,2.1,2c0.5,0.9,0.8,1.9,0.8,3.1c0,1.2-0.3,2.2-0.8,3.1
		c-0.5,0.9-1.2,1.6-2.1,2c-0.9,0.5-1.9,0.7-3,0.7S52.3,17.3,51.4,16.8z M56.1,13.8c0.5-0.5,0.7-1.2,0.7-2.1c0-0.9-0.2-1.6-0.7-2.1
		c-0.5-0.5-1-0.7-1.7-0.7c-0.7,0-1.2,0.2-1.7,0.7s-0.7,1.2-0.7,2.1c0,0.9,0.2,1.6,0.7,2.1c0.4,0.5,1,0.7,1.6,0.7
		C55,14.5,55.6,14.3,56.1,13.8z"/>
	<g>
		<path class="st3" d="M65.6,8.9c-0.7,0-1.3,0.2-1.8,0.7c-0.5,0.5-0.7,1.2-0.7,2c0,0.9,0.2,1.5,0.7,2c0.5,0.5,1.1,0.7,1.8,0.7
			c0.7,0,1.3-0.3,1.8-0.8c0.5-0.5,0.7-1.2,0.7-2.1c0-0.9-0.2-1.5-0.7-2C66.9,9.2,66.3,8.9,65.6,8.9z"/>
		<path class="st3" d="M57.2,7c-0.8-0.4-1.7-0.7-2.8-0.7S52.5,6.6,51.7,7c-0.8,0.4-1.4,1-1.9,1.8c-0.5,0.8-0.7,1.8-0.7,2.8
			c0,1.1,0.2,2,0.7,2.8c0.5,0.8,1.1,1.4,1.9,1.8c1.6,0.9,3.9,0.9,5.5,0c0.8-0.4,1.5-1,1.9-1.8c0.3-0.5,0.5-1.1,0.6-1.7v-2.3
			c-0.1-0.6-0.3-1.2-0.6-1.7C58.6,8.1,58,7.5,57.2,7z M56.4,14.1c-0.6,0.6-1.3,0.9-2.1,0.9c-0.8,0-1.5-0.3-2-0.9
			c-0.5-0.6-0.8-1.4-0.8-2.4c0-1,0.3-1.9,0.8-2.4c0.5-0.6,1.2-0.9,2-0.9c0.8,0,1.5,0.3,2,0.9c0.5,0.6,0.8,1.4,0.8,2.4
			C57.3,12.7,57,13.6,56.4,14.1z"/>
		<path class="st0" d="M59.8,11.7c0-0.4,0-0.8-0.1-1.1v2.3C59.8,12.5,59.8,12.1,59.8,11.7z"/>
		<path class="st0" d="M71,8.6c-0.4-0.9-1-1.6-1.8-2c-0.8-0.5-1.6-0.7-2.5-0.7c-0.8,0-1.5,0.2-2.1,0.5c-0.6,0.3-1.1,0.7-1.4,1.3V6.1
			h-3.5V8c0.1,0.1,0.2,0.3,0.3,0.4c0.6,1,0.8,2.1,0.8,3.3c0,1.2-0.3,2.4-0.8,3.3c-0.1,0.1-0.2,0.3-0.3,0.4v7.3h3.5v-7
			c0.3,0.5,0.8,0.9,1.4,1.3c0.6,0.3,1.3,0.5,2.1,0.5c0.9,0,1.8-0.2,2.5-0.7c0.8-0.5,1.4-1.2,1.8-2c0.4-0.9,0.7-1.9,0.7-3.1
			C71.6,10.5,71.4,9.5,71,8.6z M67.4,13.7c-0.5,0.5-1.1,0.8-1.8,0.8c-0.7,0-1.3-0.2-1.8-0.7c-0.5-0.5-0.7-1.2-0.7-2
			c0-0.9,0.2-1.5,0.7-2c0.5-0.5,1.1-0.7,1.8-0.7c0.7,0,1.3,0.2,1.8,0.7c0.5,0.5,0.7,1.2,0.7,2C68.1,12.5,67.8,13.2,67.4,13.7z"/>
		<path class="st0" d="M48.1,11.7c0-1,0.2-2,0.6-2.8c-0.2-0.6-0.5-1.2-0.9-1.7c-0.8-0.9-1.8-1.3-3.1-1.3c-0.8,0-1.4,0.1-2,0.4
			c-0.6,0.3-1.1,0.7-1.4,1.2V2.4h-3.5v1.5c0.9,0.8,1.5,1.9,1.5,3.3l0,0.5h-1.6v2.1c0.4,0.3,0.7,0.6,1,0.9c0.5,0.6,0.7,1.4,0.7,2.4
			c0,0.9-0.2,1.7-0.7,2.5c-0.3,0.4-0.6,0.8-1,1.1v0.6h3.5v-6.1c0-0.8,0.2-1.3,0.6-1.8c0.4-0.4,0.9-0.6,1.6-0.6
			c0.7,0,1.2,0.2,1.6,0.6c0.4,0.4,0.6,1,0.6,1.8v6.1h3.4v-2.3c0,0,0,0,0,0C48.3,14.1,48.1,13,48.1,11.7z"/>
	</g>
</g>
<path class="st0" d="M51.4,16.8c-0.9-0.5-1.6-1.1-2.1-2c-0.5-0.9-0.8-1.9-0.8-3.1c0-1.2,0.3-2.2,0.8-3.1c0.5-0.9,1.2-1.6,2.1-2
	c0.9-0.5,1.9-0.7,3-0.7c1.1,0,2.1,0.2,3,0.7c0.9,0.5,1.6,1.2,2.1,2c0.5,0.9,0.8,1.9,0.8,3.1c0,1.2-0.3,2.2-0.8,3.1
	c-0.5,0.9-1.2,1.6-2.1,2c-0.9,0.5-1.9,0.7-3,0.7S52.3,17.3,51.4,16.8z M56.1,13.8c0.5-0.5,0.7-1.2,0.7-2.1c0-0.9-0.2-1.6-0.7-2.1
	c-0.5-0.5-1-0.7-1.7-0.7c-0.7,0-1.2,0.2-1.7,0.7s-0.7,1.2-0.7,2.1c0,0.9,0.2,1.6,0.7,2.1c0.4,0.5,1,0.7,1.6,0.7
	C55,14.5,55.6,14.3,56.1,13.8z"/>
</svg>
